<svg xmlns="http://www.w3.org/2000/svg" fill="none" viewBox="0 0 16 16">
  <path fill="#737A80" d="M1 1h14a4 4 0 01-4 4H5a4 4 0 01-4-4zM1 6h14a4 4 0 01-4 4H5a4 4 0 01-4-4zM1 11h14a4 4 0 01-4 4H5a4 4 0 01-4-4z"/>
  <rect width="8" height="16" x="4" fill="url(#paint0_linear)" rx="1"/>
  <circle cx="8" cy="3" r="2" fill="#FF4C00"/>
  <circle cx="8" cy="3" r="2" fill="url(#paint1_linear)"/>
  <circle cx="8" cy="8" r="2" fill="#FFB900"/>
  <circle cx="8" cy="8" r="2" fill="url(#paint2_linear)"/>
  <g>
    <circle cx="8" cy="13" r="2" fill="#78D30C"/>
    <circle cx="8" cy="13" r="2" fill="url(#paint3_linear)"/>
  </g>
  <defs>
    <linearGradient id="paint0_linear" x1="8" x2="8" y1="0" y2="16" gradientUnits="userSpaceOnUse">
      <stop stop-color="#5C6166"/>
      <stop offset="1" stop-color="#45494D"/>
    </linearGradient>
    <linearGradient id="paint1_linear" x1="9" x2="7" y1="4.732" y2="1.268" gradientUnits="userSpaceOnUse">
      <stop stop-color="#D83B01"/>
      <stop offset="1" stop-color="#EC6725"/>
    </linearGradient>
    <linearGradient id="paint2_linear" x1="9" x2="7" y1="9.732" y2="6.268" gradientUnits="userSpaceOnUse">
      <stop stop-color="#F69E13"/>
      <stop offset="1" stop-color="#FFB900"/>
    </linearGradient>
    <linearGradient id="paint3_linear" x1="9" x2="7" y1="14.732" y2="11.268" gradientUnits="userSpaceOnUse">
      <stop stop-color="#33990F"/>
      <stop offset="1" stop-color="#56B60E"/>
    </linearGradient>
  </defs>
</svg>
